<svg xmlns="http://www.w3.org/2000/svg"  viewBox="0 0 48 48" width="48px" height="48px" baseProfile="basic"><path d="M40,18c0-8.822-7.178-16-16-16S8,9.178,8,18c0,0.413,0,1.728,0,2c0,6.023,2.783,9.066,5.021,11.512	C14.685,33.332,16,34.77,16,37c0,0.023,0.011,0.042,0.013,0.064c0.001,0.02-0.008,0.039-0.005,0.06l0.562,4.501	C16.882,44.119,19.013,46,21.526,46h4.947c2.514,0,4.645-1.881,4.956-4.375l0.562-4.501c0.003-0.02-0.007-0.039-0.005-0.06	C31.989,37.042,32,37.023,32,37c0-2.327,1.462-4.036,3.155-6.015C37.427,28.331,40,25.324,40,20C40,19.706,40,18.39,40,18z"/><path fill="#fff" d="M17,35l0.563,4.501C17.813,41.5,19.512,43,21.526,43h4.948c2.014,0,3.714-1.5,3.963-3.499L31,35H17z"/><path d="M26.474,44h-4.947c-2.514,0-4.645-1.881-4.956-4.375l-0.562-4.501c-0.036-0.284,0.053-0.571,0.242-0.786	C16.44,34.123,16.713,34,17,34h14c0.287,0,0.56,0.123,0.75,0.338c0.189,0.215,0.278,0.502,0.242,0.786l-0.562,4.501	C31.118,42.119,28.987,44,26.474,44z M18.133,36l0.422,3.377C18.742,40.872,20.02,42,21.526,42h4.947	c1.507,0,2.784-1.128,2.972-2.623L29.867,36H18.133z"/><path fill="#fff" d="M39,18c0,9-8,11-8,17H17c0-6-8-7-8-17C9,9.716,15.716,3,24,3S39,9.716,39,18z"/><path d="M31,36H17c-0.553,0-1-0.447-1-1c0-2.23-1.315-3.668-2.979-5.488C10.783,27.066,8,24.023,8,18C8,9.178,15.178,2,24,2	s16,7.178,16,16c0,5.324-2.573,8.331-4.845,10.985C33.462,30.964,32,32.673,32,35C32,35.553,31.553,36,31,36z M17.935,34h12.13	c0.335-2.533,1.912-4.377,3.571-6.315C35.781,25.178,38,22.585,38,18c0-7.72-6.28-14-14-14s-14,6.28-14,14	c0,5.247,2.285,7.745,4.496,10.162C16.09,29.904,17.604,31.561,17.935,34z"/><path d="M24,8c-5.514,0-10,4.486-10,10c0,0.553,0.447,1,1,1s1-0.447,1-1c0-4.411,3.589-8,8-8c0.553,0,1-0.447,1-1S24.553,8,24,8z"/><path d="M47,17h-4c-0.553,0-1,0.447-1,1s0.447,1,1,1h4c0.553,0,1-0.447,1-1S47.553,17,47,17z"/><path d="M40.001,7c0.19,0,0.383-0.055,0.554-0.168l3-2c0.46-0.307,0.584-0.927,0.277-1.387c-0.307-0.459-0.927-0.583-1.387-0.277	l-3,2c-0.46,0.307-0.584,0.927-0.277,1.387C39.36,6.844,39.678,7,40.001,7z"/><path d="M40.555,29.168c-0.461-0.306-1.081-0.183-1.387,0.277c-0.307,0.46-0.183,1.08,0.277,1.387l3,2	C42.616,32.945,42.809,33,42.999,33c0.323,0,0.641-0.156,0.833-0.445c0.307-0.46,0.183-1.08-0.277-1.387L40.555,29.168z"/><path d="M6,18c0-0.553-0.447-1-1-1H1c-0.553,0-1,0.447-1,1s0.447,1,1,1h4C5.553,19,6,18.553,6,18z"/><path d="M7.445,29.168l-3,2c-0.46,0.307-0.584,0.927-0.277,1.387C4.36,32.844,4.678,33,5.001,33c0.19,0,0.383-0.055,0.554-0.168l3-2	c0.46-0.307,0.584-0.927,0.277-1.387C8.526,28.985,7.906,28.862,7.445,29.168z"/><path d="M5.555,3.168C5.093,2.862,4.474,2.986,4.168,3.445c-0.307,0.46-0.183,1.08,0.277,1.387l3,2C7.616,6.945,7.809,7,7.999,7	C8.322,7,8.64,6.844,8.832,6.555c0.307-0.46,0.183-1.08-0.277-1.387L5.555,3.168z"/><rect width="12" height="2" x="18" y="38"/></svg>